Coordinates
version=1
nRows=34
nColumns=38
inDegrees=no

Units are S.I. units (second, meters, Newtons, ...)
If the header above contains a line with 'inDegrees', this indicates whether rotational values are in degrees (yes) or radians (no).

endheader
time	pelvis_tilt	pelvis_list	pelvis_rotation	pelvis_tx	pelvis_ty	pelvis_tz	hip_flexion_r	hip_adduction_r	hip_rotation_r	knee_angle_r	ankle_angle_r	subtalar_angle_r	mtp_angle_r	hip_flexion_l	hip_adduction_l	hip_rotation_l	knee_angle_l	ankle_angle_l	subtalar_angle_l	mtp_angle_l	lumbar_extension	lumbar_bending	lumbar_rotation	arm_flex_r	arm_add_r	arm_rot_r	elbow_flex_r	pro_sup_r	wrist_flex_r	wrist_dev_r	arm_flex_l	arm_add_l	arm_rot_l	elbow_flex_l	pro_sup_l	wrist_flex_l	wrist_dev_l
14.47	2.70089	1.29903	-0.798198	0.675932	-1.04575	0.949376	0.0680836	0.0706253	-0.126566	0.32172	-0.523741	0	0	-0.398302	-0.139996	-0.180009	0.0968241	-0.180529	0	0	-0.387451	-0.0062449	0.380149	-0.750268	-0.286898	-0.466615	2.32202	1.5708	0	0	1.00995	-0.23509	1.40845	0.192666	1.5708	0	0
14.48	2.70083	1.29842	-0.799721	0.676013	-1.04529	0.949322	0.0692877	0.0711317	-0.124373	0.325627	-0.522753	0	0	-0.400494	-0.142377	-0.182602	0.0960434	-0.181612	0	0	-0.388478	-0.00653914	0.381145	-0.75369	-0.282678	-0.467316	2.32483	1.5708	0	0	1.00975	-0.235183	1.40799	0.194031	1.5708	0	0
14.49	2.70099	1.29828	-0.801071	0.67607	-1.04483	0.949203	0.0732806	0.0706383	-0.123939	0.335886	-0.520623	0	0	-0.401346	-0.139731	-0.181101	0.0957011	-0.180834	0	0	-0.389411	-0.00719369	0.381963	-0.756755	-0.278098	-0.468976	2.32735	1.5708	0	0	1.00998	-0.234694	1.40636	0.195003	1.5708	0	0
14.5	2.70194	1.29863	-0.802956	0.676063	-1.04439	0.949074	0.075258	0.069929	-0.123931	0.341197	-0.51786	0	0	-0.40221	-0.139638	-0.181188	0.0957638	-0.180535	0	0	-0.390116	-0.00827633	0.382402	-0.75938	-0.273465	-0.471054	2.32936	1.5708	0	0	1.01015	-0.234073	1.40436	0.196011	1.5708	0	0
14.51	2.70387	1.29878	-0.805599	0.675999	-1.04399	0.949005	0.0758505	0.0691655	-0.123787	0.343913	-0.515989	0	0	-0.403116	-0.138362	-0.181037	0.0947546	-0.180518	0	0	-0.390921	-0.0090861	0.382194	-0.760909	-0.270059	-0.472241	2.33105	1.5708	0	0	1.01002	-0.233846	1.40333	0.196782	1.5708	0	0
14.52	2.70437	1.29881	-0.807068	0.675964	-1.04354	0.948944	0.0764321	0.0688356	-0.123582	0.346131	-0.514483	0	0	-0.404302	-0.13782	-0.18069	0.0938667	-0.180663	0	0	-0.391558	-0.00967704	0.382414	-0.761409	-0.266677	-0.474361	2.33217	1.5708	0	0	1.00993	-0.233336	1.40288	0.19729	1.5708	0	0
14.53	2.70457	1.29923	-0.808501	0.675943	-1.04307	0.948816	0.0772112	0.06831	-0.123356	0.348037	-0.513018	0	0	-0.405605	-0.13931	-0.18183	0.0932968	-0.181286	0	0	-0.391751	-0.010493	0.38314	-0.761191	-0.263073	-0.477738	2.33285	1.5708	0	0	1.00994	-0.232643	1.40234	0.197942	1.5708	0	0
14.54	2.70366	1.29939	-0.809018	0.67595	-1.04262	0.948687	0.0778667	0.0682409	-0.123076	0.349626	-0.511595	0	0	-0.405835	-0.137105	-0.180843	0.0939155	-0.180615	0	0	-0.391077	-0.0109496	0.384915	-0.761775	-0.259532	-0.48023	2.3333	1.5708	0	0	1.00986	-0.233791	1.40132	0.203443	1.5708	0	0
14.55	2.70519	1.29934	-0.81213	0.676031	-1.04216	0.948568	0.0777764	0.0677412	-0.123252	0.351271	-0.510008	0	0	-0.40695	-0.135925	-0.181441	0.093544	-0.180004	0	0	-0.392172	-0.0120055	0.384808	-0.761151	-0.257386	-0.480324	2.33471	1.5708	0	0	1.00991	-0.232485	1.40069	0.200747	1.5708	0	0
14.56	2.70578	1.29913	-0.814552	0.676095	-1.04171	0.948474	0.07766	0.0675885	-0.123734	0.352476	-0.508534	0	0	-0.408174	-0.135296	-0.182147	0.0934866	-0.179436	0	0	-0.392477	-0.0129849	0.386161	-0.759914	-0.255704	-0.482082	2.3348	1.5708	0	0	1.01005	-0.230864	1.40109	0.199566	1.5708	0	0
14.57	2.7052	1.29904	-0.816079	0.676182	-1.04126	0.948366	0.0779088	0.0678083	-0.123852	0.353634	-0.507182	0	0	-0.409153	-0.134768	-0.182893	0.0933342	-0.178977	0	0	-0.392615	-0.0138063	0.388235	-0.757663	-0.254028	-0.485457	2.33437	1.5708	0	0	1.01039	-0.229366	1.40234	0.199171	1.5708	0	0
14.58	2.7044	1.29877	-0.81766	0.676311	-1.04082	0.948271	0.0780868	0.0683433	-0.12343	0.354901	-0.505835	0	0	-0.410257	-0.134294	-0.183735	0.0932533	-0.178405	0	0	-0.392736	-0.0144641	0.390379	-0.755745	-0.252917	-0.487962	2.33397	1.5708	0	0	1.0107	-0.228116	1.40311	0.199226	1.5708	0	0
14.59	2.7041	1.29807	-0.820056	0.676446	-1.0404	0.948206	0.0779358	0.0692041	-0.122676	0.356482	-0.503963	0	0	-0.411845	-0.133832	-0.184962	0.0931267	-0.177469	0	0	-0.393245	-0.0150223	0.392827	-0.754501	-0.252366	-0.488859	2.33412	1.5708	0	0	1.01103	-0.226616	1.40394	0.198956	1.5708	0	0
14.6	2.70341	1.2972	-0.82229	0.67659	-1.04003	0.948171	0.0779523	0.0704101	-0.12188	0.358414	-0.502102	0	0	-0.413501	-0.133316	-0.18606	0.0928493	-0.176774	0	0	-0.394009	-0.0155379	0.39602	-0.752878	-0.252343	-0.49076	2.33388	1.5708	0	0	1.01172	-0.224651	1.40577	0.19844	1.5708	0	0
14.61	2.7017	1.29675	-0.823635	0.676778	-1.03963	0.948115	0.0781139	0.0712826	-0.122672	0.359386	-0.50095	0	0	-0.414935	-0.132845	-0.186518	0.0927418	-0.176253	0	0	-0.394328	-0.0162672	0.399317	-0.750484	-0.252746	-0.493281	2.33297	1.5708	0	0	1.01249	-0.223026	1.40777	0.198724	1.5708	0	0
14.62	2.69948	1.29651	-0.824611	0.676994	-1.03925	0.948037	0.0784059	0.0717918	-0.125043	0.360036	-0.500162	0	0	-0.416153	-0.132308	-0.186884	0.0924657	-0.175785	0	0	-0.394292	-0.0171063	0.402688	-0.747362	-0.25366	-0.495932	2.33157	1.5708	0	0	1.01318	-0.221227	1.40922	0.198737	1.5708	0	0
14.63	2.69879	1.29647	-0.826757	0.677132	-1.03884	0.947911	0.0782525	0.0718947	-0.126502	0.360214	-0.499179	0	0	-0.417415	-0.13154	-0.187605	0.0918756	-0.175268	0	0	-0.394015	-0.0181507	0.405529	-0.744761	-0.255065	-0.497233	2.33035	1.5708	0	0	1.01365	-0.219289	1.41045	0.198129	1.5708	0	0
14.64	2.69736	1.29646	-0.827952	0.677237	-1.03846	0.947801	0.0782388	0.0726224	-0.125558	0.360222	-0.498036	0	0	-0.418346	-0.130799	-0.188061	0.0915139	-0.174809	0	0	-0.393563	-0.0189175	0.408299	-0.742118	-0.256864	-0.498713	2.32899	1.5708	0	0	1.01415	-0.217233	1.41191	0.197187	1.5708	0	0
14.65	2.8371	1.26693	-0.970536	0.678547	-1.04009	0.945545	0.0329744	0.0549031	-0.100126	0.339388	-0.510765	0	0	-0.469294	-0.116294	-0.208441	0.097593	-0.157726	0	0	-0.387269	0.0932869	0.0610738	-0.268463	-0.264029	-0.269651	2.24618	1.5708	0	0	0.686541	-0.584048	0.87012	0.418878	1.5708	0	0
14.66	2.69222	1.29696	-0.828046	0.677595	-1.03776	0.947553	0.0796634	0.0739019	-0.127049	0.361838	-0.495362	0	0	-0.418658	-0.129484	-0.190399	0.0915946	-0.172802	0	0	-0.391602	-0.0199362	0.411987	-0.731636	-0.26265	-0.501357	2.32387	1.5708	0	0	1.01431	-0.215384	1.41254	0.196411	1.5708	0	0
14.67	2.68951	1.29776	-0.827523	0.677782	-1.03737	0.947366	0.0802363	0.0740596	-0.125702	0.361634	-0.495571	0	0	-0.418383	-0.128685	-0.190786	0.0911606	-0.172759	0	0	-0.392193	-0.022066	0.418355	-0.734121	-0.264044	-0.509541	2.32542	1.5708	0	0	1.01782	-0.209748	1.41653	0.195352	1.5708	0	0
14.68	2.6923	1.29648	-0.832385	0.677978	-1.03713	0.947292	0.0787957	0.0750674	-0.127765	0.361927	-0.494226	0	0	-0.421027	-0.128293	-0.191888	0.0910092	-0.172284	0	0	-0.393672	-0.0206939	0.417169	-0.724261	-0.26696	-0.506727	2.3227	1.5708	0	0	1.017	-0.211329	1.41671	0.195391	1.5708	0	0
14.69	2.69239	1.29641	-0.83417	0.678134	-1.03683	0.947231	0.0783543	0.0754934	-0.129166	0.36138	-0.492807	0	0	-0.421978	-0.127849	-0.192495	0.0906962	-0.171955	0	0	-0.393194	-0.0208906	0.416465	-0.716595	-0.271336	-0.505261	2.31958	1.5708	0	0	1.01666	-0.212307	1.41679	0.195565	1.5708	0	0
14.7	2.70352	1.32439	-0.849371	0.679507	-1.03445	0.943059	0.10334	0.0522653	-0.0946174	0.341577	-0.505701	0	0	-0.403896	-0.105767	-0.183167	0.0886685	-0.156178	0	0	-0.369675	-0.0465933	0.424172	-0.729402	-0.260215	-0.513565	2.32698	1.5708	0	0	1.02247	-0.20973	1.42382	0.201337	1.5708	0	0
14.71	2.70313	1.3242	-0.850377	0.679608	-1.03413	0.942913	0.103231	0.0525246	-0.0961946	0.341828	-0.506199	0	0	-0.403273	-0.106729	-0.190809	0.0936467	-0.158518	0	0	-0.369158	-0.0449849	0.42242	-0.718235	-0.263674	-0.512522	2.3221	1.5708	0	0	1.02115	-0.211002	1.42297	0.200303	1.5708	0	0
14.72	2.70127	1.32487	-0.849539	0.679678	-1.03383	0.942849	0.103948	0.0524561	-0.0980115	0.342199	-0.505767	0	0	-0.401904	-0.106435	-0.193744	0.0960397	-0.159448	0	0	-0.367124	-0.0452454	0.42071	-0.708856	-0.269321	-0.511315	2.3165	1.5708	0	0	1.02039	-0.211375	1.42228	0.198806	1.5708	0	0
14.73	2.69853	1.32569	-0.847704	0.679754	-1.03353	0.942779	0.104727	0.0526344	-0.0995566	0.342109	-0.504786	0	0	-0.401028	-0.106286	-0.194867	0.0968442	-0.159355	0	0	-0.365145	-0.0455603	0.419162	-0.700489	-0.27549	-0.510026	2.31115	1.5708	0	0	1.02004	-0.212114	1.42287	0.198184	1.5708	0	0
14.74	2.67085	1.32121	-0.826589	0.682111	-1.03153	0.94268	0.103562	0.0662084	-0.0967183	0.339428	-0.503595	0	0	-0.442978	-0.170153	-0.23846	0	-0.219749	0	0	-0.360664	-0.0439724	0.429677	-0.699033	-0.276614	-0.510013	2.3082	1.5708	0	0	1.02282	-0.212456	1.42634	0.19929	1.5708	0	0
14.75	2.6919	1.32799	-0.842567	0.679822	-1.03291	0.942635	0.106557	0.0527966	-0.10227	0.341493	-0.50145	0	0	-0.400183	-0.105583	-0.193554	0.0939656	-0.163831	0	0	-0.358912	-0.0461616	0.414189	-0.680797	-0.291064	-0.504919	2.29676	1.5708	0	0	1.0186	-0.213335	1.428	0.192964	1.5708	0	0
14.76	2.68798	1.32989	-0.839166	0.679861	-1.03258	0.942385	0.106347	0.0517562	-0.0985072	0.332827	-0.504141	0	0	-0.397862	-0.105055	-0.194494	0.0952593	-0.160616	0	0	-0.356397	-0.0466836	0.414018	-0.6741	-0.296215	-0.506241	2.29186	1.5708	0	0	1.01906	-0.212011	1.42881	0.191138	1.5708	0	0
14.77	2.68541	1.33015	-0.836705	0.679869	-1.03229	0.942368	0.108589	0.0531745	-0.104013	0.341301	-0.500924	0	0	-0.397404	-0.105495	-0.195582	0.0955689	-0.15955	0	0	-0.355329	-0.0466084	0.413402	-0.665488	-0.302144	-0.507458	2.28536	1.5708	0	0	1.01964	-0.210619	1.43018	0.189053	1.5708	0	0
14.78	2.68303	1.33129	-0.834192	0.679871	-1.03196	0.942244	0.110272	0.05294	-0.106368	0.343144	-0.498168	0	0	-0.396347	-0.105231	-0.195778	0.0958171	-0.159207	0	0	-0.353605	-0.0472581	0.41239	-0.65643	-0.30827	-0.508306	2.27836	1.5708	0	0	1.02038	-0.209632	1.43098	0.188059	1.5708	0	0
14.79	2.68077	1.33232	-0.831696	0.67987	-1.03164	0.942123	0.111507	0.05295	-0.107878	0.344277	-0.495807	0	0	-0.395522	-0.104874	-0.195214	0.0960523	-0.159268	0	0	-0.351781	-0.0475216	0.410795	-0.649023	-0.315184	-0.506987	2.27255	1.5708	0	0	1.02086	-0.20932	1.43124	0.187151	1.5708	0	0
14.8	2.67775	1.33418	-0.828553	0.679895	-1.03128	0.941914	0.110646	0.0520867	-0.103897	0.334902	-0.497568	0	0	-0.394031	-0.104182	-0.194496	0.0958686	-0.159274	0	0	-0.349059	-0.0482107	0.40961	-0.641212	-0.321948	-0.505525	2.2663	1.5708	0	0	1.02142	-0.208962	1.43255	0.185963	1.5708	0	0
